<svg width="24" height="24" viewBox="0 0 24 24" fill="none" xmlns="http://www.w3.org/2000/svg">
<path d="M11.029 2.53998C11.326 2.37502 11.6602 2.28845 12 2.28845C12.3398 2.28845 12.674 2.37502 12.971 2.53998L19.971 6.42798C20.2829 6.60121 20.5429 6.85475 20.7238 7.16228C20.9047 7.46982 21.0001 7.82016 21 8.17698V15.823C21.0001 16.1798 20.9047 16.5301 20.7238 16.8377C20.5429 17.1452 20.2829 17.3987 19.971 17.572L12.971 21.46C12.674 21.6249 12.3398 21.7115 12 21.7115C11.6602 21.7115 11.326 21.6249 11.029 21.46L4.029 17.571C3.71736 17.3979 3.45763 17.1447 3.27671 16.8375C3.0958 16.5304 3.00026 16.1805 3 15.824V8.17698C2.99991 7.82016 3.09527 7.46982 3.27621 7.16228C3.45714 6.85475 3.71706 6.60121 4.029 6.42798L11.029 2.53998Z" stroke="currentColor"/>
</svg>
