<svg width="24" height="24" viewBox="0 0 24 24" fill="none" xmlns="http://www.w3.org/2000/svg">
<path d="M21.184 7.99602L13.163 2.16802C12.8249 1.92262 12.4178 1.79047 12 1.79047C11.5822 1.79047 11.1751 1.92262 10.837 2.16802L2.816 7.99602C2.47812 8.24172 2.22661 8.58801 2.09747 8.98532C1.96832 9.38263 1.96816 9.81061 2.097 10.208L5.161 19.638C5.2903 20.0351 5.54186 20.3812 5.8797 20.6267C6.21754 20.8722 6.62437 21.0047 7.042 21.005H16.958C17.3756 21.0047 17.7825 20.8722 18.1203 20.6267C18.4581 20.3812 18.7097 20.0351 18.839 19.638L21.903 10.208C22.168 9.39302 21.878 8.50002 21.184 7.99602Z" stroke="currentColor" stroke-linecap="round" stroke-linejoin="round"/>
</svg>
