<svg width="24" height="24" viewBox="0 0 24 24" fill="none" xmlns="http://www.w3.org/2000/svg">
<path d="M11.179 3.41503L5.219 11.34C5.0762 11.5304 5 11.762 5 12C5 12.238 5.0772 12.4696 5.22 12.66L11.179 20.585C11.2738 20.7136 11.3975 20.8182 11.5401 20.8902C11.6827 20.9622 11.8402 20.9998 12 20.9998C12.1598 20.9998 12.3173 20.9622 12.4599 20.8902C12.6025 20.8182 12.7262 20.7136 12.821 20.585L18.781 12.66C19.073 12.272 19.073 11.728 18.781 11.34L12.821 3.41503C12.7262 3.28643 12.6025 3.18191 12.4599 3.10987C12.3173 3.03783 12.1598 3.00031 12 3.00031C11.8402 3.00031 11.6827 3.03783 11.5401 3.10987C11.3975 3.18191 11.2738 3.28643 11.179 3.41503Z" stroke="currentColor" stroke-linecap="round" stroke-linejoin="round"/>
</svg>
