<svg width="24" height="24" viewBox="0 0 24 24" fill="none" xmlns="http://www.w3.org/2000/svg">
<path d="M15.897 4H8.10297C7.78327 3.99993 7.47192 4.10201 7.21432 4.29135C6.95672 4.48068 6.76634 4.74736 6.67097 5.0525L2.60847 18.0525C2.53826 18.2771 2.52189 18.5151 2.56067 18.7472C2.59944 18.9793 2.69229 19.199 2.83169 19.3886C2.97109 19.5782 3.15314 19.7323 3.36313 19.8385C3.57312 19.9447 3.80515 20 4.04047 20H19.9595C20.1948 20 20.4268 19.9447 20.6368 19.8385C20.8468 19.7323 21.0288 19.5782 21.1682 19.3886C21.3077 19.199 21.4005 18.9793 21.4393 18.7472C21.478 18.5151 21.4617 18.2771 21.3915 18.0525L17.329 5.0525C17.2336 4.74736 17.0432 4.48068 16.7856 4.29135C16.528 4.10201 16.2167 3.99993 15.897 4Z" stroke="currentColor"/>
</svg>
