<svg width="21" height="14" viewBox="0 0 21 14" fill="none" xmlns="http://www.w3.org/2000/svg">
<path d="M12.468 14H17.7176C18.3663 14 18.9175 13.8581 19.3752 13.6109L12.468 9.61514V14ZM20.8871 11.5214C20.9619 11.1978 21 10.8551 21 10.4997V8.90877H16.3705L20.8858 11.5214M0.114875 2.46877C0.0371159 2.8073 -0.00140178 3.15318 3.89651e-05 3.5V5.09091H4.6473L0.114875 2.46877ZM8.53074 0H3.28108C2.63701 0 2.0894 0.14 1.63367 0.383727L8.53074 4.37373V0ZM1.65467 13.6265C2.10614 13.8632 2.64652 14 3.28108 14H8.53074V9.64855L1.65467 13.6265ZM3.89651e-05 8.90909V10.5C3.89651e-05 10.8662 0.0400676 11.2191 0.119141 11.551L4.68602 8.90909H3.89651e-05ZM19.3959 0.399318C18.9346 0.145409 18.3758 0 17.7176 0H12.468V4.40714L19.3959 0.399318ZM20.9987 5.09091V3.5C20.9987 3.15191 20.9616 2.81623 20.8898 2.49868L16.4092 5.09091H20.9987Z" fill="#2E3192"/>
<path d="M16.4102 5.09091L20.8911 2.49868C20.6857 1.58741 20.1856 0.833 19.3971 0.399318L12.4688 4.40714V0H11.8125V5.72727H21V5.09091H16.4102ZM0 8.27273V8.90909H4.68628L0.119109 11.551C0.336 12.4594 0.851156 13.2052 1.65473 13.6265L8.53125 9.64855V14H9.1875V8.27273H0ZM21 8.27273H11.8125V14H12.4688V9.61514L19.3764 13.6112C20.1708 13.1823 20.6771 12.432 20.8871 11.522L16.3715 8.90909H21V8.27273ZM8.53125 0V4.37373L1.63373 0.383727C0.836391 0.810091 0.326813 1.55909 0.114516 2.46877L4.64756 5.09091H0V5.72727H9.1875V0H8.53125Z" fill="#E6E7E8"/>
<path d="M11.8125 5.72727V0H9.1875V5.72727H0V8.27273H9.1875V14H11.8125V8.27273H21V5.72727H11.8125Z" fill="#BE1E2D"/>
<path d="M7.12053 4.4985L1 0.7C0.854637 0.911554 0.596459 1.25209 0.5 1.5L5.58056 4.4985H7.11952M20.9998 11.8004L15.3293 8.46514H13.759L20.6099 12.5042C20.7688 12.2866 20.8997 12.0507 20.9998 11.8017M19.4998 0.5L12.5273 4.4985L14.0851 4.49949L19.9998 1C19.8521 0.736549 19.7021 0.681143 19.4998 0.5ZM0.333008 12.3905C0.484722 12.6169 0.667299 12.822 0.875672 13L8.51176 8.46514H6.97281L0.333008 12.3905Z" fill="#BE1E2D"/>
</svg>
