<svg viewBox="0 0 28 28" fill="none" xmlns="http://www.w3.org/2000/svg">
<path d="M14 17.5C15.933 17.5 17.5 15.933 17.5 14C17.5 12.067 15.933 10.5 14 10.5C12.067 10.5 10.5 12.067 10.5 14C10.5 15.933 12.067 17.5 14 17.5Z" fill="currentColor"/>
<path d="M26.8439 13.0484C25.3969 10.8106 23.5195 8.90969 21.4151 7.5507C19.087 6.0457 16.5167 5.25 13.9825 5.25C11.6572 5.25 9.3707 5.91445 7.18648 7.22477C4.95906 8.56078 2.94109 10.5126 1.18836 13.0255C0.990489 13.3095 0.881515 13.6459 0.875283 13.9919C0.869051 14.338 0.965842 14.6781 1.15336 14.9691C2.59765 17.2293 4.45648 19.133 6.52804 20.4734C8.86047 21.9844 11.3706 22.75 13.9825 22.75C16.537 22.75 19.1127 21.9609 21.4309 20.4684C23.5342 19.1138 25.4078 17.2058 26.8494 14.9494C27.0304 14.6652 27.1261 14.3351 27.1252 13.9981C27.1242 13.6612 27.0266 13.3316 26.8439 13.0484ZM14.0011 19.25C12.9627 19.25 11.9477 18.9421 11.0843 18.3652C10.221 17.7883 9.54808 16.9684 9.15072 16.0091C8.75336 15.0498 8.6494 13.9942 8.85197 12.9758C9.05454 11.9574 9.55455 11.0219 10.2888 10.2877C11.023 9.55346 11.9585 9.05345 12.9769 8.85088C13.9953 8.64831 15.0509 8.75227 16.0102 9.14963C16.9695 9.54699 17.7894 10.2199 18.3663 11.0833C18.9432 11.9466 19.2511 12.9616 19.2511 14C19.2495 15.3919 18.6959 16.7263 17.7116 17.7106C16.7274 18.6948 15.393 19.2484 14.0011 19.25Z" fill="currentColor"/>
</svg>
