<svg width="24" height="24" viewBox="0 0 24 24" fill="none" xmlns="http://www.w3.org/2000/svg">
<path fill-rule="evenodd" clip-rule="evenodd" d="M4.33052 12.1138L6.19082 13.9918L3.40038 16.8101C3.14906 17.0551 2.94861 17.3482 2.81071 17.6723C2.67281 17.9964 2.60022 18.3449 2.59718 18.6976C2.59415 19.0503 2.66072 19.4001 2.79302 19.7265C2.92533 20.053 3.1207 20.3495 3.36776 20.5989C3.61482 20.8483 3.9086 21.0456 4.23197 21.1791C4.55534 21.3127 4.90183 21.3799 5.2512 21.3768C5.60058 21.3738 5.94585 21.3005 6.26688 21.1613C6.5879 21.0221 6.87824 20.8197 7.12097 20.566L12.7032 14.9308C13.1965 14.4327 13.4736 13.7572 13.4736 13.0528C13.4736 12.3485 13.1965 11.673 12.7032 11.1748L14.5635 9.29688C15.0522 9.79019 15.4398 10.3758 15.7043 11.0204C15.9688 11.665 16.1049 12.3558 16.1049 13.0535C16.1049 13.7511 15.9688 14.442 15.7043 15.0865C15.4398 15.7311 15.0522 16.3168 14.5635 16.8101L8.9839 22.444C8.49522 22.9373 7.91507 23.3286 7.27657 23.5956C6.63808 23.8626 5.95375 24 5.26265 24C4.57154 24 3.88721 23.8626 3.24872 23.5956C2.61022 23.3286 2.03008 22.9373 1.54139 22.444C0.554456 21.4477 0 20.0964 0 18.6874C0 17.2784 0.554456 15.9271 1.54139 14.9308L4.33052 12.1138Z" fill="#FFD500"/>
<path fill-rule="evenodd" clip-rule="evenodd" d="M4.33052 12.1138L6.19082 13.9918L3.40038 16.8101C3.14906 17.0551 2.94861 17.3482 2.81071 17.6723C2.67281 17.9964 2.60022 18.3449 2.59718 18.6976C2.59415 19.0503 2.66072 19.4001 2.79302 19.7265C2.92533 20.053 3.1207 20.3495 3.36776 20.5989C3.61482 20.8483 3.9086 21.0456 4.23197 21.1791C4.55534 21.3127 4.90183 21.3799 5.2512 21.3768C5.60058 21.3738 5.94585 21.3005 6.26688 21.1613C6.5879 21.0221 6.87824 20.8197 7.12097 20.566L12.7032 14.9308C13.1965 14.4327 13.4736 13.7572 13.4736 13.0528C13.4736 12.3485 13.1965 11.673 12.7032 11.1748L14.5635 9.29688C15.0522 9.79019 15.4398 10.3758 15.7043 11.0204C15.9688 11.665 16.1049 12.3558 16.1049 13.0535C16.1049 13.7511 15.9688 14.442 15.7043 15.0865C15.4398 15.7311 15.0522 16.3168 14.5635 16.8101L8.9839 22.444C8.49522 22.9373 7.91507 23.3286 7.27657 23.5956C6.63808 23.8626 5.95375 24 5.26265 24C4.57154 24 3.88721 23.8626 3.24872 23.5956C2.61022 23.3286 2.03008 22.9373 1.54139 22.444C0.554456 21.4477 0 20.0964 0 18.6874C0 17.2784 0.554456 15.9271 1.54139 14.9308L4.33052 12.1138Z" fill="#FFD500"/>
<path fill-rule="evenodd" clip-rule="evenodd" d="M19.6682 11.8862L17.8079 10.0082L20.5983 7.18994C20.8497 6.94491 21.0501 6.6518 21.188 6.32773C21.3259 6.00366 21.3985 5.6551 21.4015 5.30241C21.4046 4.94971 21.338 4.59994 21.2057 4.2735C21.0734 3.94706 20.878 3.65048 20.631 3.40108C20.3839 3.15167 20.0901 2.95444 19.7667 2.82088C19.4434 2.68732 19.0969 2.62012 18.7475 2.62318C18.3981 2.62625 18.0529 2.69952 17.7318 2.83873C17.4108 2.97794 17.1205 3.1803 16.8778 3.434L11.2955 9.06923C10.8023 9.56735 10.5251 10.2429 10.5251 10.9472C10.5251 11.6515 10.8023 12.327 11.2955 12.8252L9.43525 14.7031C8.94655 14.2098 8.55889 13.6242 8.29441 12.9796C8.02993 12.335 7.8938 11.6442 7.8938 10.9465C7.8938 10.2489 8.02993 9.55803 8.29441 8.91347C8.55889 8.26891 8.94655 7.68325 9.43525 7.18994L15.0161 1.55603C16.0031 0.559722 17.3416 0 18.7374 0C19.4285 0 20.1128 0.137415 20.7513 0.4044C21.3898 0.671385 21.97 1.06271 22.4586 1.55603C22.9473 2.04936 23.335 2.63502 23.5994 3.27958C23.8639 3.92413 24 4.61497 24 5.31263C24 6.0103 23.8639 6.70113 23.5994 7.34569C23.335 7.99025 22.9473 8.57591 22.4586 9.06923L19.6682 11.8862Z" fill="#005BBB"/>
<path fill-rule="evenodd" clip-rule="evenodd" d="M19.6682 11.8862L17.8079 10.0082L20.5983 7.18994C20.8497 6.94491 21.0501 6.6518 21.188 6.32773C21.3259 6.00366 21.3985 5.6551 21.4015 5.30241C21.4046 4.94971 21.338 4.59994 21.2057 4.2735C21.0734 3.94706 20.878 3.65048 20.631 3.40108C20.3839 3.15167 20.0901 2.95444 19.7667 2.82088C19.4434 2.68732 19.0969 2.62012 18.7475 2.62318C18.3981 2.62625 18.0529 2.69952 17.7318 2.83873C17.4108 2.97794 17.1205 3.1803 16.8778 3.434L11.2955 9.06923C10.8023 9.56735 10.5251 10.2429 10.5251 10.9472C10.5251 11.6515 10.8023 12.327 11.2955 12.8252L9.43525 14.7031C8.94655 14.2098 8.55889 13.6242 8.29441 12.9796C8.02993 12.335 7.8938 11.6442 7.8938 10.9465C7.8938 10.2489 8.02993 9.55803 8.29441 8.91347C8.55889 8.26891 8.94655 7.68325 9.43525 7.18994L15.0161 1.55603C16.0031 0.559722 17.3416 0 18.7374 0C19.4285 0 20.1128 0.137415 20.7513 0.4044C21.3898 0.671385 21.97 1.06271 22.4586 1.55603C22.9473 2.04936 23.335 2.63502 23.5994 3.27958C23.8639 3.92413 24 4.61497 24 5.31263C24 6.0103 23.8639 6.70113 23.5994 7.34569C23.335 7.99025 22.9473 8.57591 22.4586 9.06923L19.6682 11.8862Z" fill="#005BBB"/>
</svg>
