<svg width="861" height="733" viewBox="0 0 861 733" fill="none" xmlns="http://www.w3.org/2000/svg">
<g opacity="0.8" filter="url(#filter0_f_1334_1129)">
<path d="M357.914 285.221H299.914L280.914 300.721L299.914 317.221H407.414L486.914 269.721L407.414 216.721L261.914 216.721L187.414 269.721H5.41421M81 231.993L93.5 203.993L139.75 203.993M81 231.993H4M81 231.993H112L186 231.993L279.5 165.993H343.5L465.737 165.993L520.237 203.993H554.112H587.987M139.75 203.993H186L279.5 134.493L381.5 134.493L406 106.993L494.737 106.993M139.75 203.993L229.5 134.493M10.364 173.544L146.114 173.544L235.864 94.5437L349.864 91.0437L396.364 38.5437M396.364 38.5437L574.1 38.5437M396.364 38.5437L433.6 74.5302L690.1 74.5302M655.737 203.993L587.987 203.993M725.737 134.493L578.987 134.493M432.237 134.493H578.987M578.987 134.493L625.237 110.98L768.737 110.98M587.987 203.993L625.237 225.48L695.737 225.48M713.796 290.934H533.796L492.677 314.684M451.559 338.434L492.677 314.684M163.683 405.874L274.55 404.142M562.787 404.142H489.787M274.55 404.142L338.55 376.142H515.287M274.55 404.142H489.787M330.693 347.999L261.914 369.707L5.41421 369.707M492.677 314.684L806.296 314.684M489.787 404.142L600.287 447.142H678.787M757.287 447.142H678.787M480.369 355.52H555.37M718.37 355.52H555.37M555.37 355.52L608.37 390.763L787.37 390.763M678.787 447.142L775.287 489.142H835.287M5.41421 449.992H255.151L344.914 483.992M344.914 483.992H474.151M344.914 483.992L424.03 441.336L557.19 453.161M5.41421 483.992H202.414M255.151 483.992H202.414M5.41421 522.208H187.414L234.164 546.958M626.651 576.708L521.651 575.189M521.651 575.189L594.151 529.208H856.651M521.651 575.189L401.282 573.448M234.164 546.958L280.914 571.708L341.098 572.578M234.164 546.958H94.9142M5.41421 546.958H94.9142M401.282 573.448L528.032 503.207H685.151M401.282 573.448L341.098 572.578M202.414 483.992L280.914 534.492H376.914M94.9142 546.958L180.914 599.221H230.914M341.098 572.578L386.201 624.15L547.938 624.15M5.41421 602.937H113.414L180.914 658.437H255.151M763.651 658.437L391.414 658.437M255.151 658.437L328.651 621.437M255.151 658.437H391.414M391.414 658.437L452.938 694.724L663.938 694.724M557.774 602.478L734.987 606.081M261.535 682.33H183.036H7.53553M261.535 682.33H340.035M261.535 682.33L358.035 724.33H418.035M452.707 8.11475L26.9888 12.2953M287.985 67.535H194.485L129.985 123.535L12.4853 123.535M455.229 196.409L526.336 254.786L601.37 251.252L778.961 243.405" stroke="#25AFB0" stroke-opacity="0.3" stroke-width="3"/>
<circle cx="378.124" cy="534.597" r="2.5" fill="#25AFB0" stroke="#25AFB0" stroke-width="3"/>
<circle cx="683.296" cy="503.312" r="2.5" fill="#25AFB0" stroke="#25AFB0" stroke-width="3"/>
<circle cx="836.053" cy="489.041" r="2.5" fill="#25AFB0" stroke="#25AFB0" stroke-width="3"/>
<circle cx="734.805" cy="606.141" r="2.5" fill="#25AFB0" stroke="#25AFB0" stroke-width="3"/>
<circle cx="763.088" cy="658.468" r="2.5" fill="#25AFB0" stroke="#25AFB0" stroke-width="3"/>
<circle cx="625.91" cy="576.443" r="2.5" fill="#25AFB0" stroke="#25AFB0" stroke-width="3"/>
<circle cx="545.972" cy="623.854" r="2.5" fill="#25AFB0" stroke="#25AFB0" stroke-width="3"/>
<circle cx="663.386" cy="694.53" r="2.5" fill="#25AFB0" stroke="#25AFB0" stroke-width="3"/>
<circle cx="417.313" cy="724.229" r="2.5" fill="#25AFB0" stroke="#25AFB0" stroke-width="3"/>
<circle cx="787.929" cy="390.869" r="2.5" fill="#25AFB0" stroke="#25AFB0" stroke-width="3"/>
<circle cx="714.971" cy="290.807" r="2.5" fill="#25AFB0" stroke="#25AFB0" stroke-width="3"/>
<circle cx="695.621" cy="225.304" r="2.5" fill="#25AFB0" stroke="#25AFB0" stroke-width="3"/>
<circle cx="527.587" cy="254.745" r="2.5" fill="#25AFB0" stroke="#25AFB0" stroke-width="3"/>
<circle cx="405.965" cy="107.667" r="2.5" fill="#25AFB0" stroke="#25AFB0" stroke-width="3"/>
<circle cx="493.646" cy="314.142" r="2.5" fill="#25AFB0" stroke="#25AFB0" stroke-width="3"/>
<circle cx="589.71" cy="204.585" r="2.5" fill="#25AFB0" stroke="#25AFB0" stroke-width="3"/>
<circle cx="279.22" cy="166.529" r="2.5" fill="#25AFB0" stroke="#25AFB0" stroke-width="3"/>
<circle cx="580.71" cy="134.171" r="2.5" fill="#25AFB0" stroke="#25AFB0" stroke-width="3"/>
<circle cx="397.781" cy="38.9285" r="2.5" fill="#25AFB0" stroke="#25AFB0" stroke-width="3"/>
<circle cx="452.71" cy="8" r="2.5" fill="#25AFB0" stroke="#25AFB0" stroke-width="3"/>
<circle cx="279.71" cy="55.8992" r="2.5" fill="#25AFB0" stroke="#25AFB0" stroke-width="3"/>
<circle cx="692.085" cy="74.6907" r="2.5" fill="#25AFB0" stroke="#25AFB0" stroke-width="3"/>
<circle cx="726.026" cy="134.088" r="2.5" fill="#25AFB0" stroke="#25AFB0" stroke-width="3"/>
<circle cx="331.539" cy="347.798" r="2.5" fill="#25AFB0" stroke="#25AFB0" stroke-width="3"/>
<circle cx="386.618" cy="623.535" r="2.5" fill="#25AFB0" stroke="#25AFB0" stroke-width="3"/>
<circle cx="527.622" cy="503.611" r="2.5" fill="#25AFB0" stroke="#25AFB0" stroke-width="3"/>
<circle cx="490.853" cy="404.616" r="2.5" fill="#25AFB0" stroke="#25AFB0" stroke-width="3"/>
<circle cx="258.71" cy="719.899" r="2.5" fill="#25AFB0" stroke="#25AFB0" stroke-width="3"/>
<circle cx="231.125" cy="599.313" r="2.5" fill="#25AFB0" stroke="#25AFB0" stroke-width="3"/>
<circle cx="328.925" cy="621.698" r="2.5" fill="#25AFB0" stroke="#25AFB0" stroke-width="3"/>
<circle cx="254.417" cy="483.89" r="2.5" fill="#25AFB0" stroke="#25AFB0" stroke-width="3"/>
<circle cx="357.71" cy="285.313" r="2.5" fill="#25AFB0" stroke="#25AFB0" stroke-width="3"/>
</g>
<path d="M357.914 285.221H299.914L280.914 300.721L299.914 317.221H407.414L486.914 269.721L407.414 216.721L261.914 216.721L187.414 269.721H5.41421M81 231.993L93.5 203.993L139.75 203.993M81 231.993H4M81 231.993H112L186 231.993L279.5 165.993H343.5L465.737 165.993L520.237 203.993H554.112H587.987M139.75 203.993H186L279.5 134.493L381.5 134.493L406 106.993L494.737 106.993M139.75 203.993L229.5 134.493M10.364 173.544L146.114 173.544L235.864 94.5437L349.864 91.0437L396.364 38.5437M396.364 38.5437L574.1 38.5437M396.364 38.5437L433.6 74.5302L690.1 74.5302M655.737 203.993L587.987 203.993M725.737 134.493L578.987 134.493M432.237 134.493H578.987M578.987 134.493L625.237 110.98L768.737 110.98M587.987 203.993L625.237 225.48L695.737 225.48M713.796 290.934H533.796L492.677 314.684M451.559 338.434L492.677 314.684M163.683 405.874L274.55 404.142M562.787 404.142H489.787M274.55 404.142L338.55 376.142H515.287M274.55 404.142H489.787M330.693 347.999L261.914 369.707L5.41421 369.707M492.677 314.684L806.296 314.684M489.787 404.142L600.287 447.142H678.787M757.287 447.142H678.787M480.369 355.52H555.37M718.37 355.52H555.37M555.37 355.52L608.37 390.763L787.37 390.763M678.787 447.142L775.287 489.142H835.287M5.41421 449.992H255.151L344.914 483.992M344.914 483.992H474.151M344.914 483.992L424.03 441.336L557.19 453.161M5.41421 483.992H202.414M255.151 483.992H202.414M5.41421 522.208H187.414L234.164 546.958M626.651 576.708L521.651 575.189M521.651 575.189L594.151 529.208H856.651M521.651 575.189L401.282 573.448M234.164 546.958L280.914 571.708L341.098 572.578M234.164 546.958H94.9142M5.41421 546.958H94.9142M401.282 573.448L528.032 503.207H685.151M401.282 573.448L341.098 572.578M202.414 483.992L280.914 534.492H376.914M94.9142 546.958L180.914 599.221H230.914M341.098 572.578L386.201 624.15L547.938 624.15M5.41421 602.937H113.414L180.914 658.437H255.151M763.651 658.437L391.414 658.437M255.151 658.437L328.651 621.437M255.151 658.437H391.414M391.414 658.437L452.938 694.724L663.938 694.724M557.774 602.478L734.987 606.081M261.535 682.33H183.036H7.53553M261.535 682.33H340.035M261.535 682.33L358.035 724.33H418.035M452.707 8.11475L26.9888 12.2953M287.985 67.535H194.485L129.985 123.535L12.4853 123.535M455.229 196.409L526.336 254.786L601.37 251.252L778.961 243.405" stroke="#25AFB0" stroke-opacity="0.3"/>
<circle cx="378.124" cy="534.597" r="1.5" fill="#25AFB0" stroke="#25AFB0"/>
<circle cx="683.296" cy="503.312" r="1.5" fill="#25AFB0" stroke="#25AFB0"/>
<circle cx="836.053" cy="489.041" r="1.5" fill="#25AFB0" stroke="#25AFB0"/>
<circle cx="734.805" cy="606.141" r="1.5" fill="#25AFB0" stroke="#25AFB0"/>
<circle cx="763.088" cy="658.468" r="1.5" fill="#25AFB0" stroke="#25AFB0"/>
<circle cx="625.91" cy="576.443" r="1.5" fill="#25AFB0" stroke="#25AFB0"/>
<circle cx="545.972" cy="623.854" r="1.5" fill="#25AFB0" stroke="#25AFB0"/>
<circle cx="663.386" cy="694.53" r="1.5" fill="#25AFB0" stroke="#25AFB0"/>
<circle cx="417.313" cy="724.229" r="1.5" fill="#25AFB0" stroke="#25AFB0"/>
<circle cx="787.929" cy="390.869" r="1.5" fill="#25AFB0" stroke="#25AFB0"/>
<circle cx="714.971" cy="290.807" r="1.5" fill="#25AFB0" stroke="#25AFB0"/>
<circle cx="695.621" cy="225.304" r="1.5" fill="#25AFB0" stroke="#25AFB0"/>
<circle cx="527.587" cy="254.745" r="1.5" fill="#25AFB0" stroke="#25AFB0"/>
<circle cx="405.965" cy="107.667" r="1.5" fill="#25AFB0" stroke="#25AFB0"/>
<circle cx="493.646" cy="314.142" r="1.5" fill="#25AFB0" stroke="#25AFB0"/>
<circle cx="589.71" cy="204.585" r="1.5" fill="#25AFB0" stroke="#25AFB0"/>
<circle cx="279.22" cy="166.529" r="1.5" fill="#25AFB0" stroke="#25AFB0"/>
<circle cx="580.71" cy="134.171" r="1.5" fill="#25AFB0" stroke="#25AFB0"/>
<circle cx="397.781" cy="38.9285" r="1.5" fill="#25AFB0" stroke="#25AFB0"/>
<circle cx="452.71" cy="8" r="1.5" fill="#25AFB0" stroke="#25AFB0"/>
<circle cx="279.71" cy="55.8992" r="1.5" fill="#25AFB0" stroke="#25AFB0"/>
<circle cx="692.085" cy="74.6907" r="1.5" fill="#25AFB0" stroke="#25AFB0"/>
<circle cx="726.026" cy="134.088" r="1.5" fill="#25AFB0" stroke="#25AFB0"/>
<circle cx="331.539" cy="347.798" r="1.5" fill="#25AFB0" stroke="#25AFB0"/>
<circle cx="386.618" cy="623.535" r="1.5" fill="#25AFB0" stroke="#25AFB0"/>
<circle cx="527.622" cy="503.611" r="1.5" fill="#25AFB0" stroke="#25AFB0"/>
<circle cx="490.853" cy="404.616" r="1.5" fill="#25AFB0" stroke="#25AFB0"/>
<circle cx="258.71" cy="719.899" r="1.5" fill="#25AFB0" stroke="#25AFB0"/>
<circle cx="231.125" cy="599.313" r="1.5" fill="#25AFB0" stroke="#25AFB0"/>
<circle cx="328.925" cy="621.698" r="1.5" fill="#25AFB0" stroke="#25AFB0"/>
<circle cx="254.417" cy="483.89" r="1.5" fill="#25AFB0" stroke="#25AFB0"/>
<circle cx="357.71" cy="285.313" r="1.5" fill="#25AFB0" stroke="#25AFB0"/>
<defs>
<filter id="filter0_f_1334_1129" x="0" y="0" width="860.651" height="732.229" filterUnits="userSpaceOnUse" color-interpolation-filters="sRGB">
<feFlood flood-opacity="0" result="BackgroundImageFix"/>
<feBlend mode="normal" in="SourceGraphic" in2="BackgroundImageFix" result="shape"/>
<feGaussianBlur stdDeviation="2" result="effect1_foregroundBlur_1334_1129"/>
</filter>
</defs>
</svg>
