<svg viewBox="0 0 19 19" fill="none" xmlns="http://www.w3.org/2000/svg">
<path d="M15 18.289L14.292 17.575L16.367 15.5H9.5V14.5H16.367L14.292 12.42L15 11.712L18.288 15L15 18.289ZM17 9.71099H16V3.61599C16 3.46199 15.936 3.32066 15.808 3.19199C15.68 3.06332 15.5387 2.99932 15.384 2.99999H13V5.22999H5V2.99999H2.616C2.462 2.99999 2.32067 3.06399 2.192 3.19199C2.06333 3.31999 1.99933 3.46132 2 3.61599V16.385C2 16.5383 2.064 16.6793 2.192 16.808C2.32 16.9367 2.461 17.0007 2.615 17H7.5V18H2.616C2.168 18 1.78667 17.8427 1.472 17.528C1.15733 17.2133 1 16.8323 1 16.385V3.61499C1 3.16832 1.15733 2.78732 1.472 2.47199C1.78667 2.15732 2.168 1.99999 2.616 1.99999H7.252C7.34533 1.60932 7.553 1.28099 7.875 1.01499C8.197 0.748324 8.572 0.61499 9 0.61499C9.436 0.61499 9.814 0.748324 10.134 1.01499C10.454 1.28032 10.6607 1.60866 10.754 1.99999H15.384C15.832 1.99999 16.2133 2.15732 16.528 2.47199C16.8427 2.78666 17 3.16799 17 3.61599V9.71099ZM9 3.23099C9.232 3.23099 9.42467 3.15432 9.578 3.00099C9.73133 2.84766 9.808 2.65499 9.808 2.42299C9.808 2.19099 9.73133 1.99832 9.578 1.84499C9.42467 1.69166 9.232 1.61499 9 1.61499C8.768 1.61499 8.57533 1.69166 8.422 1.84499C8.26867 1.99832 8.192 2.19099 8.192 2.42299C8.192 2.65499 8.26867 2.84766 8.422 3.00099C8.57533 3.15432 8.768 3.23099 9 3.23099Z" fill="black"/>
</svg>
