<svg width="21" height="19" viewBox="0 0 21 19" fill="none" xmlns="http://www.w3.org/2000/svg">
<path d="M14.4609 9.96875C14.6953 9.73438 14.6953 9.30469 14.4609 9.07031L9.46094 4.07031C9.22656 3.83594 8.79688 3.83594 8.5625 4.07031C8.32812 4.30469 8.32812 4.73438 8.5625 4.96875L12.5078 8.875H1.53125C1.17969 8.875 0.90625 9.1875 0.90625 9.5C0.90625 9.85156 1.17969 10.125 1.53125 10.125H12.5078L8.5625 14.0703C8.32812 14.3047 8.32812 14.7344 8.5625 14.9688C8.79688 15.2031 9.22656 15.2031 9.46094 14.9688L14.4609 9.96875ZM14.0312 17C13.6797 17 13.4062 17.3125 13.4062 17.625C13.4062 17.9766 13.6797 18.25 14.0312 18.25H17.7812C19.5 18.25 20.9062 16.8828 20.9062 15.125V3.875C20.9062 2.15625 19.5 0.75 17.7812 0.75H14.0312C13.6797 0.75 13.4062 1.0625 13.4062 1.375C13.4062 1.72656 13.6797 2 14.0312 2H17.7812C18.7969 2 19.6562 2.85938 19.6562 3.875V15.125C19.6562 16.1797 18.7969 17 17.7812 17H14.0312Z" fill="#C9CED6"/>
</svg>
