<svg width="22" height="16" viewBox="0 0 22 16" fill="none" xmlns="http://www.w3.org/2000/svg">
<path d="M18.9247 0H2.36559C1.7382 0 1.1365 0.250974 0.692866 0.697711C0.249231 1.14445 0 1.75035 0 2.38213L0 7.74194H21.2903V2.38213C21.2903 1.75035 21.0411 1.14445 20.5975 0.697711C20.1538 0.250974 19.5521 0 18.9247 0Z" fill="#005BBB"/>
<path d="M21.2903 13.1015C21.2903 13.7333 21.0411 14.3392 20.5975 14.7859C20.1538 15.2327 19.5521 15.4836 18.9247 15.4836H2.36559C1.7382 15.4836 1.1365 15.2327 0.692866 14.7859C0.249231 14.3392 0 13.7333 0 13.1015V7.7417H21.2903V13.1015Z" fill="#FFD500"/>
</svg>
