<svg viewBox="0 0 80 80" fill="none" xmlns="http://www.w3.org/2000/svg">
<g clip-path="url(#clip0_1597_1289)">
<g filter="url(#filter0_f_1597_1289)">
<path d="M40 68C55.464 68 68 55.464 68 40C68 24.536 55.464 12 40 12C24.536 12 12 24.536 12 40C12 55.464 24.536 68 40 68Z" stroke="#4ADE80" stroke-width="2"/>
<path d="M32 40L38 46L48 34" stroke="#4ADE80" stroke-width="2" stroke-linecap="round" stroke-linejoin="round"/>
</g>
<path d="M40 68C55.464 68 68 55.464 68 40C68 24.536 55.464 12 40 12C24.536 12 12 24.536 12 40C12 55.464 24.536 68 40 68Z" stroke="#4ADE80" stroke-width="2"/>
<path d="M32 40L38 46L48 34" stroke="#4ADE80" stroke-width="3" stroke-linecap="round" stroke-linejoin="round"/>
</g>
<defs>
<filter id="filter0_f_1597_1289" x="-1" y="-1" width="82" height="82" filterUnits="userSpaceOnUse" color-interpolation-filters="sRGB">
<feFlood flood-opacity="0" result="BackgroundImageFix"/>
<feBlend mode="normal" in="SourceGraphic" in2="BackgroundImageFix" result="shape"/>
<feGaussianBlur stdDeviation="6" result="effect1_foregroundBlur_1597_1289"/>
</filter>
<clipPath id="clip0_1597_1289">
<rect fill="white"/>
</clipPath>
</defs>
</svg>
